<svg width="401" height="74" viewBox="0 0 401 74" fill="none" xmlns="http://www.w3.org/2000/svg">
<path d="M21.61 55.9428V73.8151L0 42.127L21.61 55.9428Z" fill="#0DAFD2"/>
<path d="M43.2209 42.127L21.6094 73.8151V55.9428L43.2209 42.127Z" fill="#667BBC"/>
<path d="M43.2209 37.662L21.6094 25.3345V51.4793L43.2209 37.662Z" fill="#9E69AC"/>
<path d="M43.2209 37.662L21.6094 0V25.3345L43.2209 37.662Z" fill="#F58B77"/>
<path d="M21.61 0V25.3345L0 37.662L21.61 0Z" fill="#F9EC7B"/>
<path d="M21.61 25.3345V51.4793L0 37.662L21.61 25.3345Z" fill="#54BC7A"/>
<path d="M65.1484 19.2365C65.1484 17.8119 65.4402 16.5504 66.0238 15.4519C66.6074 14.3534 67.4226 13.5038 68.4696 12.903C69.5166 12.3023 70.7267 12.0019 72.0998 12.0019C73.4214 12.0019 74.5971 12.3109 75.6269 12.9288C76.6739 13.5467 77.4892 14.4135 78.0728 15.5291C78.6564 16.6448 78.9481 17.9149 78.9481 19.3395V20.4208H68.8301C68.8816 21.279 69.2077 21.9741 69.8084 22.5062C70.4091 23.0383 71.1987 23.3043 72.177 23.3043C72.8636 23.3043 73.4986 23.1584 74.0822 22.8666C74.6658 22.5577 75.3008 22.0342 75.9874 21.2962L78.2788 23.639C77.4892 24.5144 76.5795 25.2009 75.5497 25.6987C74.5199 26.1793 73.3957 26.4196 72.177 26.4196C70.7868 26.4196 69.5595 26.1192 68.4954 25.5185C67.4312 24.9177 66.6074 24.0767 66.0238 22.9954C65.4402 21.8969 65.1484 20.6439 65.1484 19.2365ZM75.2408 17.7432C75.1721 16.988 74.8374 16.3616 74.2367 15.8638C73.6531 15.3661 72.9408 15.1172 72.0998 15.1172C71.2244 15.1172 70.5035 15.3575 69.9371 15.8381C69.3707 16.3186 69.0189 16.9537 68.8816 17.7432H75.2408Z" fill="#989898"/>
<path d="M90.8527 15.6836V21.1674C90.8527 21.6308 90.9557 21.9655 91.1617 22.1715C91.3848 22.3775 91.7452 22.4805 92.243 22.4805H95.3582V26.0334H91.9083C90.3979 26.0334 89.2307 25.6815 88.4069 24.9778C87.583 24.2569 87.1711 23.2357 87.1711 21.9141V15.6836H83.8241V12.3881H87.1711V8.91246H90.8527V12.3881H96.2078V15.6836H90.8527Z" fill="#989898"/>
<path d="M101.599 7.23899H105.28V13.6497H105.332C106.293 12.5512 107.606 12.0019 109.271 12.0019C110.266 12.0019 111.15 12.2422 111.923 12.7228C112.695 13.2034 113.296 13.8814 113.725 14.7567C114.154 15.6321 114.369 16.6448 114.369 17.7947V26.0334H110.687V18.2839C110.687 17.3742 110.455 16.6619 109.992 16.147C109.528 15.6321 108.893 15.3746 108.087 15.3746C107.211 15.3746 106.525 15.6321 106.027 16.147C105.529 16.6448 105.28 17.3399 105.28 18.2324V26.0334H101.599V7.23899Z" fill="#989898"/>
<path d="M118.858 19.2365C118.858 17.8119 119.15 16.5504 119.734 15.4519C120.317 14.3534 121.133 13.5038 122.18 12.903C123.227 12.3023 124.437 12.0019 125.81 12.0019C127.131 12.0019 128.307 12.3109 129.337 12.9288C130.384 13.5467 131.199 14.4135 131.783 15.5291C132.366 16.6448 132.658 17.9149 132.658 19.3395V20.4208H122.54C122.592 21.279 122.918 21.9741 123.518 22.5062C124.119 23.0383 124.909 23.3043 125.887 23.3043C126.574 23.3043 127.209 23.1584 127.792 22.8666C128.376 22.5577 129.011 22.0342 129.697 21.2962L131.989 23.639C131.199 24.5144 130.29 25.2009 129.26 25.6987C128.23 26.1793 127.106 26.4196 125.887 26.4196C124.497 26.4196 123.27 26.1192 122.205 25.5185C121.141 24.9177 120.317 24.0767 119.734 22.9954C119.15 21.8969 118.858 20.6439 118.858 19.2365ZM128.951 17.7432C128.882 16.988 128.547 16.3616 127.947 15.8638C127.363 15.3661 126.651 15.1172 125.81 15.1172C124.934 15.1172 124.214 15.3575 123.647 15.8381C123.081 16.3186 122.729 16.9537 122.592 17.7432H128.951Z" fill="#989898"/>
<path d="M138.41 12.3881H141.937V13.6497H141.988C142.572 13.0661 143.172 12.6456 143.79 12.3881C144.425 12.1307 145.146 12.0019 145.953 12.0019C147.137 12.0019 148.159 12.3538 149.017 13.0575C149.875 13.7441 150.476 14.6881 150.819 15.8896L147.369 17.0224C146.974 15.9067 146.159 15.3489 144.923 15.3489C143.996 15.3489 143.293 15.6235 142.812 16.1728C142.331 16.7048 142.091 17.4429 142.091 18.3869V26.0334H138.41V12.3881Z" fill="#989898"/>
<path d="M154.665 19.2365C154.665 17.8119 154.957 16.5504 155.54 15.4519C156.124 14.3534 156.939 13.5038 157.986 12.903C159.033 12.3023 160.243 12.0019 161.616 12.0019C162.938 12.0019 164.114 12.3109 165.144 12.9288C166.191 13.5467 167.006 14.4135 167.589 15.5291C168.173 16.6448 168.465 17.9149 168.465 19.3395V20.4208H158.347C158.398 21.279 158.724 21.9741 159.325 22.5062C159.926 23.0383 160.715 23.3043 161.694 23.3043C162.38 23.3043 163.015 23.1584 163.599 22.8666C164.182 22.5577 164.818 22.0342 165.504 21.2962L167.795 23.639C167.006 24.5144 166.096 25.2009 165.066 25.6987C164.037 26.1793 162.912 26.4196 161.694 26.4196C160.303 26.4196 159.076 26.1192 158.012 25.5185C156.948 24.9177 156.124 24.0767 155.54 22.9954C154.957 21.8969 154.665 20.6439 154.665 19.2365ZM164.757 17.7432C164.689 16.988 164.354 16.3616 163.753 15.8638C163.17 15.3661 162.457 15.1172 161.616 15.1172C160.741 15.1172 160.02 15.3575 159.454 15.8381C158.887 16.3186 158.536 16.9537 158.398 17.7432H164.757Z" fill="#989898"/>
<path d="M173.341 21.3991V12.3881H177.022V20.5495C177.022 22.2144 177.846 23.0469 179.494 23.0469C180.232 23.0469 180.816 22.8237 181.245 22.3775C181.691 21.9141 181.914 21.3047 181.914 20.5495V12.3881H185.596V26.0334H182.069V24.8233H182.017C181.64 25.3039 181.116 25.6901 180.447 25.9819C179.794 26.2737 179.108 26.4196 178.387 26.4196C176.774 26.4196 175.529 25.9819 174.654 25.1065C173.778 24.214 173.341 22.9782 173.341 21.3991Z" fill="#989898"/>
<path d="M190.086 12.3881H193.33V13.5724H193.381C193.673 13.109 194.042 12.7572 194.488 12.5169C194.952 12.2594 195.458 12.1307 196.007 12.1307C197.088 12.1307 197.955 12.637 198.607 13.6497H198.659C199.345 12.637 200.289 12.1307 201.491 12.1307C202.486 12.1307 203.293 12.4825 203.911 13.1863C204.529 13.89 204.838 14.8082 204.838 15.941V26.0334H201.439V16.5847C201.439 16.1899 201.336 15.8896 201.13 15.6836C200.925 15.4776 200.633 15.3746 200.255 15.3746C199.895 15.3746 199.603 15.4948 199.38 15.7351C199.174 15.9582 199.071 16.2672 199.071 16.6619V26.0334H195.853V16.5847C195.853 16.2071 195.75 15.9153 195.544 15.7093C195.355 15.4862 195.08 15.3746 194.72 15.3746C194.342 15.3746 194.042 15.4948 193.819 15.7351C193.596 15.9582 193.484 16.2672 193.484 16.6619V26.0334H190.086V12.3881Z" fill="#989898"/>
<path d="M230.398 17.2026H226.793V13.9071H230.398V11.899C230.398 10.6975 230.793 9.75349 231.582 9.06694C232.389 8.36322 233.496 8.01136 234.903 8.01136H238.868V11.2811H235.341C234.981 11.2811 234.706 11.3755 234.517 11.5643C234.328 11.7531 234.234 12.0191 234.234 12.3624V13.9071H239.692V17.2026H234.234V26.0334H230.398V17.2026Z" fill="#989898"/>
<path d="M244.182 19.2108C244.182 17.8033 244.474 16.5589 245.057 15.4776C245.641 14.3791 246.456 13.5295 247.503 12.9288C248.567 12.3109 249.777 12.0019 251.133 12.0019C252.506 12.0019 253.716 12.3109 254.763 12.9288C255.827 13.5295 256.651 14.3791 257.235 15.4776C257.818 16.5589 258.11 17.8033 258.11 19.2108C258.11 20.6182 257.818 21.8711 257.235 22.9696C256.651 24.0509 255.827 24.9006 254.763 25.5185C253.716 26.1192 252.506 26.4196 251.133 26.4196C249.777 26.4196 248.567 26.1192 247.503 25.5185C246.456 24.9006 245.641 24.0509 245.057 22.9696C244.474 21.8711 244.182 20.6182 244.182 19.2108ZM254.429 19.2108C254.429 18.0093 254.137 17.0739 253.553 16.4045C252.987 15.7179 252.18 15.3746 251.133 15.3746C250.103 15.3746 249.297 15.7179 248.713 16.4045C248.147 17.0739 247.863 18.0093 247.863 19.2108C247.863 20.4122 248.147 21.3562 248.713 22.0428C249.297 22.7122 250.103 23.0469 251.133 23.0469C252.163 23.0469 252.97 22.7036 253.553 22.017C254.137 21.3305 254.429 20.3951 254.429 19.2108Z" fill="#989898"/>
<path d="M262.857 21.3991V12.3881H266.539V20.5495C266.539 22.2144 267.363 23.0469 269.011 23.0469C269.749 23.0469 270.332 22.8237 270.761 22.3775C271.208 21.9141 271.431 21.3047 271.431 20.5495V12.3881H275.112V26.0334H271.585V24.8233H271.534C271.156 25.3039 270.633 25.6901 269.963 25.9819C269.311 26.2737 268.625 26.4196 267.904 26.4196C266.29 26.4196 265.046 25.9819 264.171 25.1065C263.295 24.214 262.857 22.9782 262.857 21.3991Z" fill="#989898"/>
<path d="M280.632 12.3881H284.314V13.6754H284.365C284.914 13.1262 285.507 12.7142 286.142 12.4396C286.777 12.1478 287.498 12.0019 288.304 12.0019C289.197 12.0019 290.029 12.2165 290.802 12.6456C291.574 13.0575 292.2 13.7012 292.681 14.5765C293.162 15.4347 293.402 16.5075 293.402 17.7947V26.0334H289.72V18.2839C289.72 17.4086 289.497 16.7048 289.051 16.1728C288.605 15.6407 287.961 15.3746 287.12 15.3746C286.245 15.3746 285.558 15.6321 285.06 16.147C284.563 16.6448 284.314 17.3399 284.314 18.2324V26.0334H280.632V12.3881Z" fill="#989898"/>
<path d="M297.609 19.2108C297.609 17.8376 297.875 16.6019 298.407 15.5034C298.939 14.4049 299.685 13.5467 300.647 12.9288C301.608 12.3109 302.698 12.0019 303.916 12.0019C305.461 12.0019 306.671 12.4139 307.546 13.2377H307.598V7.23899H311.28V26.0334H307.881V24.8491H307.83C306.817 25.8961 305.495 26.4196 303.865 26.4196C302.663 26.4196 301.582 26.1192 300.621 25.5185C299.677 24.9177 298.939 24.0767 298.407 22.9954C297.875 21.8969 297.609 20.6353 297.609 19.2108ZM307.598 20.0861V18.3097C307.598 17.7947 307.461 17.3142 307.186 16.8679C306.911 16.4216 306.525 16.0612 306.027 15.7866C305.547 15.5119 305.006 15.3746 304.405 15.3746C303.444 15.3746 302.68 15.7265 302.114 16.4302C301.565 17.1168 301.29 18.0436 301.29 19.2108C301.29 20.3607 301.573 21.2876 302.14 21.9913C302.706 22.695 303.453 23.0469 304.38 23.0469C305.307 23.0469 306.07 22.7637 306.671 22.1973C307.289 21.6137 307.598 20.91 307.598 20.0861Z" fill="#989898"/>
<path d="M316.645 22.3775C316.645 21.1074 317.074 20.1204 317.932 19.4167C318.807 18.713 320.258 18.1981 322.283 17.872C323.347 17.7003 324.068 17.5115 324.446 17.3056C324.84 17.0824 325.038 16.7907 325.038 16.4302C325.038 16.0183 324.849 15.6922 324.471 15.4519C324.094 15.2116 323.579 15.0914 322.927 15.0914C322.189 15.0914 321.545 15.3146 320.996 15.7608C320.464 16.2071 320.12 16.7992 319.966 17.5373L316.542 16.7649C316.713 15.8381 317.1 15.0142 317.7 14.2933C318.301 13.5724 319.056 13.0146 319.966 12.6198C320.876 12.2079 321.863 12.0019 322.927 12.0019C324.677 12.0019 326.076 12.4911 327.123 13.4695C328.17 14.4478 328.694 15.7522 328.694 17.3828V26.0334H325.398V24.5144H325.347C324.952 25.1151 324.394 25.5871 323.673 25.9304C322.97 26.2565 322.171 26.4196 321.279 26.4196C320.386 26.4196 319.588 26.2479 318.885 25.9046C318.181 25.5614 317.632 25.0808 317.237 24.4629C316.842 23.845 316.645 23.1498 316.645 22.3775ZM325.192 20.9615V19.4167H325.141C324.986 19.6742 324.729 19.8801 324.368 20.0346C324.008 20.1891 323.442 20.3436 322.669 20.498C321.708 20.704 321.047 20.9271 320.687 21.1674C320.326 21.3906 320.146 21.7081 320.146 22.12C320.146 22.5148 320.301 22.8152 320.61 23.0211C320.936 23.2271 321.399 23.3301 322 23.3301C322.549 23.3301 323.073 23.2271 323.57 23.0211C324.068 22.798 324.463 22.5062 324.755 22.1458C325.046 21.7682 325.192 21.3734 325.192 20.9615Z" fill="#989898"/>
<path d="M341.499 15.6836V21.1674C341.499 21.6308 341.602 21.9655 341.808 22.1715C342.031 22.3775 342.392 22.4805 342.89 22.4805H346.005V26.0334H342.555C341.045 26.0334 339.877 25.6815 339.054 24.9778C338.23 24.2569 337.818 23.2357 337.818 21.9141V15.6836H334.471V12.3881H337.818V8.91246H341.499V12.3881H346.854V15.6836H341.499Z" fill="#989898"/>
<path d="M365.273 22.6607V26.0334H351.859V22.6607H356.725V15.7608H352.117V12.3881H360.407V22.6607H365.273ZM356.648 6.62109H360.433V10.2512H356.648V6.62109Z" fill="#989898"/>
<path d="M369.505 19.2108C369.505 17.8033 369.797 16.5589 370.38 15.4776C370.964 14.3791 371.779 13.5295 372.826 12.9288C373.89 12.3109 375.101 12.0019 376.456 12.0019C377.83 12.0019 379.04 12.3109 380.087 12.9288C381.151 13.5295 381.975 14.3791 382.558 15.4776C383.142 16.5589 383.434 17.8033 383.434 19.2108C383.434 20.6182 383.142 21.8711 382.558 22.9696C381.975 24.0509 381.151 24.9006 380.087 25.5185C379.04 26.1192 377.83 26.4196 376.456 26.4196C375.101 26.4196 373.89 26.1192 372.826 25.5185C371.779 24.9006 370.964 24.0509 370.38 22.9696C369.797 21.8711 369.505 20.6182 369.505 19.2108ZM379.752 19.2108C379.752 18.0093 379.46 17.0739 378.877 16.4045C378.31 15.7179 377.503 15.3746 376.456 15.3746C375.427 15.3746 374.62 15.7179 374.036 16.4045C373.47 17.0739 373.187 18.0093 373.187 19.2108C373.187 20.4122 373.47 21.3562 374.036 22.0428C374.62 22.7122 375.427 23.0469 376.456 23.0469C377.486 23.0469 378.293 22.7036 378.877 22.017C379.46 21.3305 379.752 20.3951 379.752 19.2108Z" fill="#989898"/>
<path d="M388.052 12.3881H391.734V13.6754H391.785C392.334 13.1262 392.927 12.7142 393.562 12.4396C394.197 12.1478 394.918 12.0019 395.724 12.0019C396.617 12.0019 397.449 12.2165 398.222 12.6456C398.994 13.0575 399.62 13.7012 400.101 14.5765C400.582 15.4347 400.822 16.5075 400.822 17.7947V26.0334H397.14V18.2839C397.14 17.4086 396.917 16.7048 396.471 16.1728C396.025 15.6407 395.381 15.3746 394.54 15.3746C393.665 15.3746 392.978 15.6321 392.48 16.147C391.983 16.6448 391.734 17.3399 391.734 18.2324V26.0334H388.052V12.3881Z" fill="#989898"/>
<path d="M66.6504 55.7965V43.7801H71.5599V54.6635C71.5599 56.8837 72.6586 57.9937 74.8559 57.9937C75.8401 57.9937 76.6183 57.6962 77.1905 57.1011C77.7856 56.4831 78.0831 55.6706 78.0831 54.6635V43.7801H82.9927V61.9763H78.2891V60.3627H78.2205C77.7169 61.0036 77.0188 61.5186 76.1262 61.9077C75.2564 62.2968 74.3409 62.4913 73.3796 62.4913C71.2281 62.4913 69.5687 61.9077 68.4013 60.7403C67.234 59.5502 66.6504 57.9022 66.6504 55.7965Z" fill="#36364C"/>
<path d="M89.9756 55.9681L94.4388 54.9382C94.7593 56.0826 95.3315 56.9638 96.1554 57.5818C97.0023 58.1769 98.0666 58.4744 99.3484 58.4744C100.493 58.4744 101.363 58.3371 101.958 58.0624C102.576 57.7878 102.885 57.3986 102.885 56.8951C102.885 56.3229 102.576 55.888 101.958 55.5905C101.34 55.27 100.207 54.9496 98.5587 54.6292C95.8579 54.1256 93.9238 53.4275 92.7565 52.5349C91.6121 51.6422 91.0399 50.4177 91.0399 48.8613C91.0399 47.7627 91.3603 46.7899 92.0012 45.943C92.6421 45.0962 93.5347 44.4438 94.6791 43.9861C95.8464 43.5054 97.174 43.2651 98.6617 43.2651C100.699 43.2651 102.507 43.7686 104.086 44.7757C105.666 45.7828 106.73 47.1218 107.279 48.7926L103.056 50.1659C102.713 49.2504 102.152 48.5409 101.374 48.0373C100.619 47.5338 99.7031 47.282 98.6274 47.282C97.7347 47.282 97.0252 47.4308 96.4988 47.7283C95.9723 48.003 95.7091 48.3921 95.7091 48.8956C95.7091 49.3534 95.9952 49.7311 96.5674 50.0286C97.1625 50.3033 98.2268 50.5779 99.7604 50.8526C102.553 51.379 104.544 52.1114 105.734 53.0499C106.947 53.9654 107.554 55.2471 107.554 56.8951C107.554 58.0166 107.211 59.0008 106.524 59.8477C105.86 60.6946 104.899 61.3469 103.64 61.8047C102.404 62.2624 100.973 62.4913 99.3484 62.4913C96.8764 62.4913 94.8165 61.9191 93.1685 60.7747C91.5434 59.6303 90.4791 58.0281 89.9756 55.9681Z" fill="#36364C"/>
<path d="M113.369 52.9125C113.369 51.0128 113.759 49.3305 114.537 47.8657C115.315 46.4008 116.402 45.2678 117.798 44.4667C119.195 43.6656 120.808 43.2651 122.639 43.2651C124.402 43.2651 125.969 43.6771 127.343 44.5011C128.739 45.325 129.826 46.4809 130.604 47.9686C131.383 49.4564 131.772 51.1501 131.772 53.0499V54.4918H118.279C118.348 55.6362 118.783 56.5632 119.584 57.2728C120.385 57.9823 121.438 58.3371 122.742 58.3371C123.658 58.3371 124.505 58.1425 125.283 57.7534C126.061 57.3414 126.908 56.6433 127.823 55.6591L130.879 58.7834C129.826 59.9507 128.613 60.8662 127.24 61.53C125.866 62.1709 124.367 62.4913 122.742 62.4913C120.888 62.4913 119.252 62.0908 117.833 61.2897C116.414 60.4886 115.315 59.367 114.537 57.9251C113.759 56.4602 113.369 54.7894 113.369 52.9125ZM126.828 50.9212C126.736 49.9142 126.29 49.0787 125.489 48.415C124.711 47.7512 123.761 47.4193 122.639 47.4193C121.472 47.4193 120.511 47.7398 119.755 48.3806C119 49.0215 118.531 49.8684 118.348 50.9212H126.828Z" fill="#36364C"/>
<path d="M161.118 52.8782C161.118 51.0014 161.508 49.3419 162.286 47.9C163.064 46.4351 164.151 45.3022 165.547 44.5011C166.966 43.6771 168.58 43.2651 170.388 43.2651C172.517 43.2651 174.348 43.8487 175.881 45.0161C177.415 46.1834 178.456 47.7512 179.006 49.7196L174.268 51.0242C174.039 50.0172 173.604 49.2275 172.963 48.6553C172.322 48.0602 171.464 47.7627 170.388 47.7627C169.015 47.7627 167.939 48.2204 167.161 49.136C166.406 50.0286 166.028 51.276 166.028 52.8782C166.028 54.4804 166.406 55.7392 167.161 56.6548C167.939 57.5474 169.015 57.9937 170.388 57.9937C171.464 57.9937 172.322 57.7076 172.963 57.1354C173.604 56.5403 174.039 55.7392 174.268 54.7322L179.006 56.0368C178.456 58.0052 177.415 59.573 175.881 60.7403C174.348 61.9077 172.517 62.4913 170.388 62.4913C168.58 62.4913 166.966 62.0908 165.547 61.2897C164.151 60.4657 163.064 59.3327 162.286 57.8907C161.508 56.4259 161.118 54.755 161.118 52.8782Z" fill="#36364C"/>
<path d="M186.126 57.1011C186.126 55.4074 186.698 54.0913 187.843 53.1529C189.01 52.2144 190.944 51.5278 193.645 51.0929C195.064 50.864 196.025 50.6123 196.529 50.3376C197.055 50.04 197.318 49.6509 197.318 49.1703C197.318 48.621 197.067 48.1861 196.563 47.8657C196.06 47.5452 195.373 47.385 194.503 47.385C193.519 47.385 192.661 47.6825 191.928 48.2776C191.219 48.8727 190.761 49.6624 190.555 50.6466L185.989 49.6166C186.218 48.3806 186.733 47.282 187.534 46.3207C188.335 45.3594 189.342 44.6155 190.555 44.0891C191.768 43.5398 193.084 43.2651 194.503 43.2651C196.838 43.2651 198.703 43.9174 200.099 45.222C201.496 46.5267 202.194 48.2662 202.194 50.4406V61.9763H197.799V59.9507H197.73C197.204 60.7518 196.46 61.3812 195.499 61.839C194.56 62.2739 193.496 62.4913 192.306 62.4913C191.116 62.4913 190.051 62.2624 189.113 61.8047C188.174 61.3469 187.442 60.706 186.916 59.882C186.389 59.0581 186.126 58.1311 186.126 57.1011ZM197.524 55.2128V53.1529H197.456C197.25 53.4962 196.906 53.7708 196.426 53.9768C195.945 54.1828 195.19 54.3888 194.16 54.5948C192.878 54.8695 191.997 55.167 191.516 55.4875C191.036 55.785 190.795 56.2085 190.795 56.7578C190.795 57.2842 191.001 57.6848 191.413 57.9594C191.848 58.2341 192.466 58.3714 193.267 58.3714C194 58.3714 194.698 58.2341 195.361 57.9594C196.025 57.6619 196.552 57.2728 196.941 56.7921C197.33 56.2886 197.524 55.7621 197.524 55.2128Z" fill="#36364C"/>
<path d="M209.348 55.9681L213.811 54.9382C214.132 56.0826 214.704 56.9638 215.528 57.5818C216.375 58.1769 217.439 58.4744 218.721 58.4744C219.865 58.4744 220.735 58.3371 221.33 58.0624C221.948 57.7878 222.257 57.3986 222.257 56.8951C222.257 56.3229 221.948 55.888 221.33 55.5905C220.712 55.27 219.579 54.9496 217.931 54.6292C215.23 54.1256 213.296 53.4275 212.129 52.5349C210.985 51.6422 210.412 50.4177 210.412 48.8613C210.412 47.7627 210.733 46.7899 211.374 45.943C212.015 45.0962 212.907 44.4438 214.052 43.9861C215.219 43.5054 216.547 43.2651 218.034 43.2651C220.071 43.2651 221.88 43.7686 223.459 44.7757C225.038 45.7828 226.102 47.1218 226.652 48.7926L222.429 50.1659C222.086 49.2504 221.525 48.5409 220.747 48.0373C219.991 47.5338 219.076 47.282 218 47.282C217.107 47.282 216.398 47.4308 215.871 47.7283C215.345 48.003 215.082 48.3921 215.082 48.8956C215.082 49.3534 215.368 49.7311 215.94 50.0286C216.535 50.3033 217.599 50.5779 219.133 50.8526C221.925 51.379 223.917 52.1114 225.107 53.0499C226.32 53.9654 226.926 55.2471 226.926 56.8951C226.926 58.0166 226.583 59.0008 225.896 59.8477C225.233 60.6946 224.271 61.3469 223.013 61.8047C221.777 62.2624 220.346 62.4913 218.721 62.4913C216.249 62.4913 214.189 61.9191 212.541 60.7747C210.916 59.6303 209.852 58.0281 209.348 55.9681Z" fill="#36364C"/>
<path d="M232.742 52.9125C232.742 51.0128 233.131 49.3305 233.909 47.8657C234.688 46.4008 235.775 45.2678 237.171 44.4667C238.567 43.6656 240.181 43.2651 242.012 43.2651C243.774 43.2651 245.342 43.6771 246.715 44.5011C248.112 45.325 249.199 46.4809 249.977 47.9686C250.755 49.4564 251.144 51.1501 251.144 53.0499V54.4918H237.652C237.72 55.6362 238.155 56.5632 238.956 57.2728C239.757 57.9823 240.81 58.3371 242.115 58.3371C243.03 58.3371 243.877 58.1425 244.655 57.7534C245.434 57.3414 246.28 56.6433 247.196 55.6591L250.252 58.7834C249.199 59.9507 247.986 60.8662 246.612 61.53C245.239 62.1709 243.74 62.4913 242.115 62.4913C240.261 62.4913 238.624 62.0908 237.205 61.2897C235.786 60.4886 234.688 59.367 233.909 57.9251C233.131 56.4602 232.742 54.7894 232.742 52.9125ZM246.2 50.9212C246.109 49.9142 245.663 49.0787 244.861 48.415C244.083 47.7512 243.133 47.4193 242.012 47.4193C240.845 47.4193 239.883 47.7398 239.128 48.3806C238.373 49.0215 237.903 49.8684 237.72 50.9212H246.2Z" fill="#36364C"/>
<path d="M298.722 57.4788V61.9763H280.834V57.4788H287.323V42.4411H281.178V37.9435H292.233V57.4788H298.722Z" fill="#36364C"/>
<path d="M305.499 57.1011C305.499 55.4074 306.071 54.0913 307.215 53.1529C308.383 52.2144 310.317 51.5278 313.017 51.0929C314.436 50.864 315.398 50.6123 315.901 50.3376C316.428 50.04 316.691 49.6509 316.691 49.1703C316.691 48.621 316.439 48.1861 315.936 47.8657C315.432 47.5452 314.745 47.385 313.876 47.385C312.892 47.385 312.033 47.6825 311.301 48.2776C310.591 48.8727 310.133 49.6624 309.927 50.6466L305.361 49.6166C305.59 48.3806 306.105 47.282 306.906 46.3207C307.707 45.3594 308.714 44.6155 309.927 44.0891C311.141 43.5398 312.457 43.2651 313.876 43.2651C316.21 43.2651 318.076 43.9174 319.472 45.222C320.868 46.5267 321.566 48.2662 321.566 50.4406V61.9763H317.172V59.9507H317.103C316.577 60.7518 315.833 61.3812 314.871 61.839C313.933 62.2739 312.869 62.4913 311.678 62.4913C310.488 62.4913 309.424 62.2624 308.486 61.8047C307.547 61.3469 306.815 60.706 306.288 59.882C305.762 59.0581 305.499 58.1311 305.499 57.1011ZM316.897 55.2128V53.1529H316.828C316.622 53.4962 316.279 53.7708 315.798 53.9768C315.318 54.1828 314.562 54.3888 313.532 54.5948C312.251 54.8695 311.369 55.167 310.889 55.4875C310.408 55.785 310.168 56.2085 310.168 56.7578C310.168 57.2842 310.374 57.6848 310.786 57.9594C311.221 58.2341 311.839 58.3714 312.64 58.3714C313.372 58.3714 314.07 58.2341 314.734 57.9594C315.398 57.6619 315.924 57.2728 316.313 56.7921C316.702 56.2886 316.897 55.7621 316.897 55.2128Z" fill="#36364C"/>
<path d="M333.527 60.397H333.459V61.9763H328.927V36.9136H333.836V44.9131H333.905C335.072 43.8144 336.686 43.2651 338.746 43.2651C340.371 43.2651 341.824 43.6771 343.106 44.5011C344.388 45.325 345.383 46.4695 346.093 47.9343C346.803 49.3992 347.157 51.0471 347.157 52.8782C347.157 54.7779 346.803 56.4602 346.093 57.9251C345.383 59.367 344.388 60.4886 343.106 61.2897C341.847 62.0908 340.417 62.4913 338.815 62.4913C336.64 62.4913 334.878 61.7932 333.527 60.397ZM342.248 52.8782C342.248 51.3218 341.87 50.0858 341.115 49.1703C340.382 48.2319 339.375 47.7627 338.094 47.7627C337.292 47.7627 336.56 47.9458 335.896 48.312C335.255 48.6782 334.752 49.1588 334.386 49.7539C334.019 50.349 333.836 50.9899 333.836 51.6766V54.0455C333.836 55.1441 334.237 56.0826 335.038 56.8608C335.862 57.6161 336.892 57.9937 338.128 57.9937C339.364 57.9937 340.359 57.5245 341.115 56.5861C341.87 55.6477 342.248 54.4117 342.248 52.8782Z" fill="#36364C"/>
</svg>
